<svg width="50" height="50" viewBox="0 0 50 50" fill="none" xmlns="http://www.w3.org/2000/svg">
<path d="M45.8327 11.9172L36.2494 3.87549L33.5619 7.06299L43.1452 15.1047L45.8327 11.9172ZM16.416 7.06299L13.7493 3.87549L4.16602 11.8963L6.85352 15.0838L16.416 7.06299ZM26.041 16.6672H22.916V29.1672L32.8119 35.1047L34.3744 32.5422L26.041 27.6047V16.6672ZM24.9994 8.33382C14.6452 8.33382 6.24935 16.7297 6.24935 27.0838C6.24935 37.438 14.6243 45.8338 24.9994 45.8338C35.3535 45.8338 43.7494 37.438 43.7494 27.0838C43.7494 16.7297 35.3535 8.33382 24.9994 8.33382ZM24.9994 41.6672C16.9369 41.6672 10.416 35.1463 10.416 27.0838C10.416 19.0213 16.9369 12.5005 24.9994 12.5005C33.0619 12.5005 39.5827 19.0213 39.5827 27.0838C39.5827 35.1463 33.0619 41.6672 24.9994 41.6672Z" fill="#23274F"/>
</svg>
