<svg width="202" height="60" viewBox="0 0 202 60" fill="none" xmlns="http://www.w3.org/2000/svg">
<path d="M202 0H0V60H202V0Z" fill="#F7F7FC"/>
<path d="M44.44 29.7002C44.44 24.9002 48.3304 22.3502 48.6297 22.2002C46.3852 18.9002 42.6445 18.4502 41.4474 18.4502C38.4548 18.1502 35.4622 20.2502 33.966 20.2502C32.4697 20.2502 30.0756 18.4502 27.5319 18.6002C24.3897 18.6002 21.2474 20.5502 19.6015 23.4002C16.16 29.4002 18.7037 38.1002 21.9956 43.0502C23.6415 45.4502 25.5867 48.0002 28.1304 47.8502C30.5245 47.7002 31.4223 46.3502 34.5645 46.3502C37.4074 46.3502 38.3052 47.8502 40.9985 47.8502C43.5422 47.8502 45.1882 45.4502 46.9837 43.2002C48.9289 40.5002 49.6771 37.9502 49.6771 37.6502C49.6771 37.5002 44.44 35.5502 44.44 29.7002Z" fill="#23274F"/>
<path d="M39.5024 15.3C40.8491 13.65 41.7469 11.4 41.4476 9C39.5024 9.15 37.258 10.35 35.6121 11.85C34.415 13.2 33.3676 15.6 33.6669 17.85C36.061 18.15 38.3054 16.95 39.5024 15.3Z" fill="#23274F"/>
<path d="M80.2011 47.5498H76.7596L74.9641 41.5498H68.3804L66.5848 47.5498H63.293L69.8767 27.2998H73.767L80.2011 47.5498ZM74.3656 38.9998L72.7196 33.7498C72.57 33.1498 72.2707 31.9498 71.6722 29.9998C71.5226 30.8998 71.2233 32.0998 70.7744 33.7498L69.1285 38.9998H74.3656Z" fill="#23274F"/>
<path d="M96.8096 40.0502C96.8096 42.4502 96.2111 44.4002 94.8644 46.0502C93.6674 47.2502 92.1711 48.0002 90.5252 48.0002C88.58 48.0002 87.2334 47.2502 86.4852 45.9002V53.7002H83.343V37.8002C83.343 36.3002 83.343 34.6502 83.1934 33.0002H86.0363L86.186 35.2502C87.2334 33.6002 88.8793 32.7002 90.9741 32.7002C92.62 32.7002 94.1163 33.3002 95.1637 34.6502C96.3608 36.0002 96.8096 37.8002 96.8096 40.0502ZM93.6674 40.2002C93.6674 38.8502 93.3682 37.6502 92.7696 36.7502C92.0215 35.8502 91.1237 35.4002 89.9267 35.4002C89.1785 35.4002 88.4304 35.7002 87.8319 36.1502C87.2333 36.6002 86.7845 37.3502 86.6348 38.2502C86.4852 38.7002 86.4852 39.0002 86.4852 39.1502V41.5502C86.4852 42.6002 86.7845 43.5002 87.383 44.2502C87.9815 45.0002 88.8793 45.3002 89.9267 45.3002C91.1237 45.3002 92.0215 44.8502 92.7696 43.9502C93.3682 43.0502 93.6674 41.7002 93.6674 40.2002Z" fill="#23274F"/>
<path d="M113.569 40.0502C113.569 42.4502 112.971 44.4002 111.624 46.0502C110.427 47.2502 108.931 48.0002 107.285 48.0002C105.34 48.0002 103.993 47.2502 103.245 45.9002V53.7002H100.103V37.8002C100.103 36.3002 100.103 34.6502 99.9531 33.0002H102.796L102.946 35.2502C103.993 33.6002 105.639 32.7002 107.734 32.7002C109.38 32.7002 110.876 33.3002 111.923 34.6502C113.121 36.0002 113.569 37.8002 113.569 40.0502ZM110.278 40.2002C110.278 38.8502 109.978 37.6502 109.38 36.7502C108.632 35.8502 107.734 35.4002 106.537 35.4002C105.789 35.4002 105.041 35.7002 104.442 36.1502C103.843 36.6002 103.395 37.3502 103.245 38.2502C103.095 38.7002 103.095 39.0002 103.095 39.1502V41.5502C103.095 42.6002 103.395 43.5002 103.993 44.2502C104.592 45.0002 105.489 45.3002 106.537 45.3002C107.734 45.3002 108.632 44.8502 109.38 43.9502C109.829 43.0502 110.278 41.7002 110.278 40.2002Z" fill="#23274F"/>
<path d="M132.273 42.0002C132.273 43.6502 131.674 45.1502 130.477 46.2002C129.131 47.4002 127.335 48.0002 124.941 48.0002C122.846 48.0002 121.051 47.5502 119.854 46.8002L120.602 44.1002C121.948 45.0002 123.594 45.4502 125.24 45.4502C126.437 45.4502 127.335 45.1502 128.083 44.7002C128.682 44.1002 129.131 43.5002 129.131 42.4502C129.131 41.7002 128.831 40.9502 128.233 40.3502C127.634 39.7502 126.736 39.3002 125.539 38.8502C122.098 37.5002 120.302 35.7002 120.302 33.0002C120.302 31.3502 120.901 30.0002 122.098 28.9502C123.295 27.9002 124.941 27.4502 127.036 27.4502C128.831 27.4502 130.328 27.7502 131.525 28.3502L130.776 30.9002C129.579 30.3002 128.382 30.0002 127.036 30.0002C125.839 30.0002 125.091 30.3002 124.342 30.9002C123.744 31.3502 123.594 31.9502 123.594 32.7002C123.594 33.4502 123.894 34.2002 124.492 34.6502C125.091 35.1002 125.988 35.7002 127.335 36.1502C128.981 36.9002 130.328 37.6502 131.076 38.5502C131.974 39.3002 132.273 40.3502 132.273 42.0002Z" fill="#23274F"/>
<path d="M143.045 35.3994H139.603V42.5994C139.603 44.3994 140.202 45.2994 141.399 45.2994C141.998 45.2994 142.446 45.2994 142.746 45.1494L142.895 47.5494C142.297 47.8494 141.399 47.8494 140.352 47.8494C139.155 47.8494 138.107 47.3994 137.359 46.6494C136.611 45.8994 136.312 44.5494 136.312 42.7494V35.3994H134.217V32.9994H136.312V30.2994L139.454 29.3994V32.9994H143.045V35.3994Z" fill="#23274F"/>
<path d="M159.205 40.0502C159.205 42.3002 158.607 44.1002 157.26 45.6002C155.913 47.1002 154.118 47.8502 152.023 47.8502C149.928 47.8502 148.282 47.1002 146.935 45.7502C145.738 44.4002 144.99 42.6002 144.99 40.5002C144.99 38.2502 145.589 36.4502 146.935 34.8002C148.282 33.4502 149.928 32.7002 152.172 32.7002C154.267 32.7002 155.913 33.4502 157.26 34.8002C158.607 36.1502 159.205 37.9502 159.205 40.0502ZM155.913 40.2002C155.913 38.8502 155.614 37.8002 155.015 36.7502C154.417 35.5502 153.369 35.1002 152.172 35.1002C150.826 35.1002 149.928 35.7002 149.18 36.7502C148.581 37.6502 148.282 38.8502 148.282 40.2002C148.282 41.5502 148.581 42.6002 149.18 43.6502C149.928 44.8502 150.826 45.3002 152.023 45.3002C153.22 45.3002 154.267 44.7002 154.866 43.5002C155.614 42.7502 155.913 41.5502 155.913 40.2002Z" fill="#23274F"/>
<path d="M169.68 35.8498C169.381 35.8498 169.081 35.6998 168.633 35.6998C167.435 35.6998 166.687 36.1498 166.089 36.8998C165.49 37.6498 165.341 38.5498 165.341 39.7498V47.3998H162.198V37.3498C162.198 35.6998 162.198 34.1998 162.049 32.8498H164.892L165.041 35.5498H165.191C165.49 34.6498 166.089 33.8998 166.837 33.2998C167.585 32.8498 168.333 32.5498 169.081 32.5498C169.381 32.5498 169.68 32.5498 169.83 32.5498C169.68 32.6998 169.68 35.8498 169.68 35.8498Z" fill="#23274F"/>
<path d="M184.194 39.4502C184.194 40.0502 184.194 40.5002 184.044 40.9502H174.318C174.318 42.3002 174.767 43.5002 175.665 44.2502C176.413 44.8502 177.46 45.3002 178.807 45.3002C180.154 45.3002 181.5 45.0002 182.697 44.5502L183.146 46.8002C181.8 47.4002 180.154 47.7002 178.358 47.7002C176.114 47.7002 174.318 47.1002 173.121 45.7502C171.924 44.4002 171.176 42.7502 171.176 40.5002C171.176 38.4002 171.774 36.4502 172.971 34.9502C174.168 33.4502 175.814 32.7002 178.059 32.7002C180.154 32.7002 181.65 33.4502 182.697 34.9502C183.595 36.1502 184.194 37.6502 184.194 39.4502ZM181.051 38.7002C181.051 37.8002 180.902 36.9002 180.453 36.3002C179.854 35.4002 179.106 34.9502 177.909 34.9502C176.862 34.9502 175.964 35.4002 175.365 36.3002C174.767 37.0502 174.468 37.8002 174.468 38.8502L181.051 38.7002Z" fill="#23274F"/>
<path d="M73.1679 14.8498C73.1679 16.6498 72.5694 17.9998 71.522 18.8998C70.4746 19.6498 69.1279 20.0998 67.3323 20.0998C66.4346 20.0998 65.6864 20.0998 65.0879 19.9498V10.1998C65.9857 10.0498 66.8834 10.0498 67.7812 10.0498C69.4272 10.0498 70.7738 10.3498 71.6716 11.0998C72.719 11.9998 73.1679 13.3498 73.1679 14.8498ZM71.3723 14.8498C71.3723 13.6498 71.0731 12.8998 70.4746 12.1498C69.876 11.5498 68.9783 11.2498 67.7812 11.2498C67.3323 11.2498 66.8834 11.2498 66.5842 11.3998V18.8998C66.7338 18.8998 67.1827 18.8998 67.6316 18.8998C68.8286 18.8998 69.7264 18.5998 70.4746 17.8498C71.2227 17.0998 71.3723 16.1998 71.3723 14.8498Z" fill="#23274F"/>
<path d="M82.1447 16.35C82.1447 17.4 81.8454 18.3 81.2469 19.05C80.6484 19.8 79.7506 20.1 78.7032 20.1C77.6558 20.1 76.9076 19.8 76.1595 19.05C75.561 18.3 75.2617 17.55 75.2617 16.5C75.2617 15.45 75.561 14.55 76.1595 13.8C76.758 13.05 77.6558 12.75 78.7032 12.75C79.7506 12.75 80.4988 13.05 81.2469 13.8C81.8454 14.4 82.1447 15.3 82.1447 16.35ZM80.3491 16.5C80.3491 15.9 80.1995 15.3 79.9002 14.85C79.601 14.25 79.1521 13.95 78.5536 13.95C77.955 13.95 77.5062 14.25 77.0573 14.85C76.758 15.3 76.6084 15.9 76.6084 16.5C76.6084 17.1 76.758 17.7 77.0573 18.15C77.3565 18.75 77.8054 19.05 78.5536 19.05C79.1521 19.05 79.601 18.75 79.9002 18.15C80.3491 17.7 80.3491 17.1 80.3491 16.5Z" fill="#23274F"/>
<path d="M94.1155 12.9L91.871 20.1H90.3747L89.4769 17.1C89.1777 16.35 89.028 15.6 88.8784 14.85C88.7288 15.6 88.5792 16.35 88.2799 17.1L87.3821 20.1H85.8858L83.791 12.9H85.437L86.1851 16.2C86.3347 16.95 86.4843 17.7 86.634 18.45C86.7836 17.85 86.9332 17.1 87.2325 16.2L88.2799 12.75H89.6266L90.5244 16.05C90.8236 16.8 90.9732 17.7 91.1229 18.45C91.2725 17.7 91.4221 16.95 91.5718 16.05L92.4695 12.75L94.1155 12.9Z" fill="#23274F"/>
<path d="M102.347 19.95H100.85V15.9C100.85 14.7 100.401 14.1 99.5036 14.1C99.0547 14.1 98.6058 14.25 98.3065 14.55C98.0073 14.85 97.8576 15.3 97.8576 15.75V19.95H96.3613V15C96.3613 14.4 96.3613 13.65 96.3613 13.05H97.708V14.1C97.8576 13.8 98.1569 13.5 98.4562 13.2C98.905 12.9 99.3539 12.75 99.8028 12.75C100.401 12.75 101 12.9 101.449 13.35C102.047 13.8 102.197 14.7 102.197 15.75V19.95H102.347Z" fill="#23274F"/>
<path d="M106.535 19.9502H105.039V9.4502H106.535V19.9502Z" fill="#23274F"/>
<path d="M116.111 16.35C116.111 17.4 115.812 18.3 115.214 19.05C114.615 19.8 113.717 20.1 112.67 20.1C111.623 20.1 110.874 19.8 110.126 19.05C109.528 18.3 109.229 17.55 109.229 16.5C109.229 15.45 109.528 14.55 110.126 13.8C110.725 13.05 111.623 12.75 112.67 12.75C113.717 12.75 114.466 13.05 115.214 13.8C115.812 14.4 116.111 15.3 116.111 16.35ZM114.316 16.5C114.316 15.9 114.166 15.3 113.867 14.85C113.568 14.25 113.119 13.95 112.52 13.95C111.922 13.95 111.473 14.25 111.024 14.85C110.725 15.3 110.575 15.9 110.575 16.5C110.575 17.1 110.725 17.7 111.024 18.15C111.323 18.75 111.772 19.05 112.52 19.05C113.119 19.05 113.568 18.75 113.867 18.15C114.316 17.7 114.316 17.1 114.316 16.5Z" fill="#23274F"/>
<path d="M123.742 19.95H122.395L122.245 19.2C121.797 19.8 121.048 20.1 120.151 20.1C119.552 20.1 118.954 19.95 118.505 19.5C118.205 19.05 117.906 18.6 117.906 18C117.906 17.1 118.206 16.5 118.954 16.05C119.702 15.6 120.749 15.3 121.946 15.45V15.3C121.946 14.4 121.497 13.95 120.45 13.95C119.702 13.95 119.103 14.1 118.654 14.4L118.355 13.35C118.954 12.9 119.851 12.75 120.749 12.75C122.545 12.75 123.443 13.65 123.443 15.75V18.3C123.742 19.05 123.742 19.5 123.742 19.95ZM121.797 17.55V16.5C120.001 16.5 119.253 16.95 119.253 17.85C119.253 18.15 119.403 18.45 119.552 18.75C119.702 18.9 120.001 19.05 120.3 19.05C120.6 19.05 120.899 18.9 121.198 18.75C121.497 18.6 121.647 18.3 121.797 17.85C121.797 17.7 121.797 17.7 121.797 17.55Z" fill="#23274F"/>
<path d="M132.72 19.9498H131.374V18.7498C130.925 19.6498 130.177 20.0998 129.129 20.0998C128.232 20.0998 127.633 19.7998 127.034 19.0498C126.436 18.4498 126.137 17.5498 126.137 16.4998C126.137 15.2998 126.436 14.3998 127.034 13.6498C127.633 13.0498 128.381 12.5998 129.279 12.5998C130.177 12.5998 130.925 12.8998 131.224 13.4998V9.2998H132.72V17.8498C132.571 18.7498 132.72 19.3498 132.72 19.9498ZM131.075 16.9498V15.7498C131.075 15.5998 131.075 15.4498 131.075 15.2998C130.925 14.8498 130.775 14.5498 130.476 14.3998C130.177 14.0998 129.877 13.9498 129.429 13.9498C128.83 13.9498 128.381 14.2498 128.082 14.6998C127.783 15.1498 127.633 15.7498 127.633 16.4998C127.633 17.2498 127.783 17.6998 128.082 18.1498C128.381 18.5998 128.83 18.8998 129.429 18.8998C129.877 18.8998 130.326 18.7498 130.626 18.2998C130.775 17.9998 131.075 17.5498 131.075 16.9498Z" fill="#23274F"/>
<path d="M146.188 16.35C146.188 17.4 145.888 18.3 145.29 19.05C144.691 19.8 143.794 20.1 142.746 20.1C141.699 20.1 140.951 19.8 140.202 19.05C139.604 18.3 139.305 17.55 139.305 16.5C139.305 15.45 139.604 14.55 140.202 13.8C140.801 13.05 141.699 12.75 142.746 12.75C143.794 12.75 144.542 13.05 145.29 13.8C146.038 14.4 146.188 15.3 146.188 16.35ZM144.691 16.5C144.691 15.9 144.542 15.3 144.242 14.85C143.943 14.25 143.494 13.95 142.896 13.95C142.297 13.95 141.848 14.25 141.399 14.85C141.1 15.3 140.951 15.9 140.951 16.5C140.951 17.1 141.1 17.7 141.399 18.15C141.699 18.75 142.148 19.05 142.896 19.05C143.494 19.05 143.943 18.75 144.242 18.15C144.691 17.7 144.691 17.1 144.691 16.5Z" fill="#23274F"/>
<path d="M155.016 19.95H153.519V15.9C153.519 14.7 153.07 14.1 152.023 14.1C151.574 14.1 151.125 14.25 150.826 14.55C150.527 14.85 150.377 15.3 150.377 15.75V19.95H148.881V15C148.881 14.4 148.881 13.65 148.881 13.05H150.228V14.1C150.377 13.8 150.676 13.5 150.976 13.2C151.425 12.9 151.873 12.75 152.472 12.75C153.07 12.75 153.669 12.9 154.118 13.35C154.716 13.8 154.866 14.7 154.866 15.75V19.95H155.016Z" fill="#23274F"/>
<path d="M165.638 14.0996H163.843V17.5496C163.843 18.4496 164.142 18.8996 164.74 18.8996C165.04 18.8996 165.189 18.8996 165.488 18.8996V20.0996C165.189 20.2496 164.74 20.2496 164.291 20.2496C163.693 20.2496 163.244 20.0996 162.795 19.6496C162.496 19.1996 162.346 18.5996 162.346 17.6996V14.0996H161.299V12.8996H162.346V11.5496L163.843 11.0996V12.8996H165.638V14.0996Z" fill="#23274F"/>
<path d="M173.869 19.9498H172.372V15.8998C172.372 14.6998 171.924 13.9498 171.026 13.9498C170.278 13.9498 169.829 14.2498 169.529 14.9998C169.529 15.1498 169.529 15.2998 169.529 15.5998V19.7998H168.033V9.2998H169.529V13.4998C169.978 12.7498 170.727 12.2998 171.624 12.2998C172.223 12.2998 172.821 12.4498 173.27 12.8998C173.869 13.4998 174.018 14.2498 174.018 15.2998C173.869 15.7498 173.869 19.9498 173.869 19.9498Z" fill="#23274F"/>
<path d="M182.696 16.05C182.696 16.35 182.696 16.5 182.696 16.8H178.058C178.058 17.55 178.357 18 178.806 18.45C179.255 18.75 179.704 18.9 180.302 18.9C181.05 18.9 181.649 18.75 182.247 18.6L182.546 19.65C181.948 19.95 181.05 20.1 180.152 20.1C179.105 20.1 178.207 19.8 177.609 19.2C177.01 18.6 176.711 17.7 176.711 16.65C176.711 15.6 177.01 14.7 177.609 13.95C178.207 13.2 179.105 12.75 180.003 12.75C181.05 12.75 181.798 13.2 182.247 13.95C182.546 14.55 182.696 15.3 182.696 16.05ZM181.2 15.75C181.2 15.3 181.05 14.85 180.901 14.55C180.601 14.1 180.152 13.95 179.704 13.95C179.255 13.95 178.806 14.1 178.506 14.55C178.207 14.85 178.058 15.3 178.058 15.75C177.908 15.75 181.2 15.75 181.2 15.75Z" fill="#23274F"/>
</svg>
