<svg width="50" height="50" viewBox="0 0 50 50" fill="none" xmlns="http://www.w3.org/2000/svg">
<path d="M21.7297 39.0623C22.5005 38.104 23.688 37.4998 25.0005 37.4998C26.313 37.4998 27.4797 38.104 28.2505 39.0623C29.063 38.8748 29.8339 38.6248 30.5839 38.3123L27.6255 31.6873C26.813 31.9998 25.9172 32.1665 25.0005 32.1665C24.0422 32.1665 23.1255 31.979 22.2922 31.6457L19.313 38.2915C20.1047 38.6248 20.8964 38.8957 21.7297 39.0623ZM10.7297 20.8332C10.3964 22.0623 10.2089 23.354 10.2089 24.6873C10.2089 26.2498 10.4589 27.7498 10.8964 29.1665C12.2089 29.2707 13.438 29.9998 14.1464 31.229C14.8339 32.4165 14.8755 33.7915 14.3755 34.9582C14.938 35.5207 15.5422 36.0623 16.188 36.5415L19.3547 29.479C18.3755 28.2707 17.7922 26.729 17.7922 25.0415C17.7922 21.104 21.0214 17.9373 25.0005 17.9373C28.9797 17.9373 32.2089 21.1248 32.2089 25.0415C32.2089 26.7498 31.6047 28.3123 30.5839 29.5415L33.7089 36.5207C34.3755 36.0207 35.0005 35.479 35.5839 34.8748C35.1255 33.729 35.1672 32.3748 35.8339 31.229C36.5214 30.0415 37.7089 29.3123 39.0005 29.1665C39.4589 27.7498 39.7089 26.229 39.7089 24.6665C39.7089 23.3332 39.5214 22.0207 39.188 20.7915C37.8547 20.7082 36.563 19.979 35.8547 18.7082C35.1047 17.4165 35.1255 15.8748 35.7922 14.6457C33.8964 12.604 31.4172 11.0832 28.6255 10.3748C27.8964 11.6665 26.5422 12.4998 25.0005 12.4998C23.4589 12.4998 22.1047 11.6457 21.3755 10.3957C18.5839 11.104 16.1047 12.5832 14.2089 14.6248C14.8964 15.8748 14.938 17.4373 14.1672 18.7498C13.438 20.0415 12.1047 20.7707 10.7297 20.8332ZM8.02137 19.9582C6.39637 18.7082 5.89637 16.4165 6.95887 14.5832C8.02137 12.7498 10.2505 12.0207 12.1464 12.8123C14.4589 10.3748 17.4797 8.58317 20.8547 7.77067C21.1464 5.729 22.8964 4.1665 25.0005 4.1665C27.1047 4.1665 28.8547 5.729 29.1255 7.77067C32.5214 8.58317 35.5214 10.354 37.8339 12.8123C39.7297 12.0207 41.9797 12.7498 43.0214 14.5832C44.0839 16.4165 43.5839 18.7082 41.9589 19.9582C42.438 21.5623 42.688 23.2498 42.688 24.9998C42.688 26.7498 42.438 28.4373 41.9589 30.0415C43.5839 31.2915 44.0839 33.5832 43.0214 35.4165C41.9589 37.2498 39.7297 37.979 37.8339 37.1873C37.0005 38.0832 36.063 38.8748 35.0422 39.5832L37.8339 45.8332H33.9589L31.938 41.3123C31.0422 41.6873 30.1047 41.9998 29.1464 42.229C28.8547 44.2707 27.1047 45.8332 25.0005 45.8332C22.8964 45.8332 21.1464 44.2707 20.8755 42.229C19.8755 41.979 18.9172 41.6665 18.0005 41.2707L15.9589 45.8332H12.0422L14.8755 39.5207C13.8964 38.8332 12.9797 38.0415 12.1672 37.1873C10.2505 37.979 8.02137 37.2498 6.95887 35.4165C5.89637 33.5832 6.39637 31.2915 8.02137 30.0415C7.5422 28.4373 7.2922 26.7498 7.2922 24.9998C7.2922 23.2498 7.5422 21.5623 8.02137 19.9582Z" fill="#23274F"/>
</svg>
