<svg width="202" height="60" viewBox="0 0 202 60" fill="none" xmlns="http://www.w3.org/2000/svg">
<path d="M194 0H8C3.58172 0 0 3.58172 0 8V52C0 56.4183 3.58172 60 8 60H194C198.418 60 202 56.4183 202 52V8C202 3.58172 198.418 0 194 0Z" fill="#F7F7FC"/>
<path d="M70.925 15.2996C70.925 16.4996 70.6258 17.5496 69.8776 18.2996C68.9799 19.1996 67.9325 19.6496 66.5858 19.6496C65.2391 19.6496 64.1917 19.1996 63.2939 18.2996C62.3962 17.3996 61.9473 16.3496 61.9473 14.9996C61.9473 13.6496 62.3962 12.5996 63.2939 11.6996C64.1917 10.7996 65.2391 10.3496 66.5858 10.3496C67.1843 10.3496 67.7828 10.4996 68.3813 10.7996C68.9799 11.0996 69.4288 11.3996 69.728 11.8496L68.9799 12.5996C68.3814 11.8496 67.6332 11.5496 66.5858 11.5496C65.688 11.5496 64.7902 11.8496 64.1917 12.5996C63.4436 13.1996 63.1443 14.0996 63.1443 15.1496C63.1443 16.1996 63.4436 17.0996 64.1917 17.6996C64.9399 18.2996 65.688 18.7496 66.5858 18.7496C67.6332 18.7496 68.3813 18.4496 69.1295 17.6996C69.5784 17.2496 69.8776 16.6496 69.8776 15.8996H66.5858V14.6996H70.925C70.925 14.8496 70.925 15.1496 70.925 15.2996Z" fill="#23274F" stroke="#23274F" stroke-width="0.2" stroke-miterlimit="10"/>
<path d="M77.8074 11.55H73.7674V14.4H77.5081V15.45H73.7674V18.3H77.8074V19.5H72.5703V10.5H77.8074V11.55Z" fill="#23274F" stroke="#23274F" stroke-width="0.2" stroke-miterlimit="10"/>
<path d="M82.7466 19.5H81.5496V11.55H79.0059V10.5H85.2903V11.55H82.7466V19.5Z" fill="#23274F" stroke="#23274F" stroke-width="0.2" stroke-miterlimit="10"/>
<path d="M89.6289 19.5V10.5H90.826V19.5H89.6289Z" fill="#23274F" stroke="#23274F" stroke-width="0.2" stroke-miterlimit="10"/>
<path d="M95.9126 19.5H94.7156V11.55H92.1719V10.5H98.3067V11.55H95.763V19.5H95.9126Z" fill="#23274F" stroke="#23274F" stroke-width="0.2" stroke-miterlimit="10"/>
<path d="M110.128 18.2996C109.23 19.1996 108.182 19.6496 106.836 19.6496C105.489 19.6496 104.442 19.1996 103.544 18.2996C102.646 17.3996 102.197 16.3496 102.197 14.9996C102.197 13.6496 102.646 12.5996 103.544 11.6996C104.442 10.7996 105.489 10.3496 106.836 10.3496C108.182 10.3496 109.23 10.7996 110.128 11.6996C111.025 12.5996 111.474 13.6496 111.474 14.9996C111.474 16.3496 111.025 17.3996 110.128 18.2996ZM104.442 17.5496C105.04 18.1496 105.938 18.5996 106.836 18.5996C107.734 18.5996 108.631 18.2996 109.23 17.5496C109.828 16.9496 110.277 16.0496 110.277 14.9996C110.277 13.9496 109.978 13.0496 109.23 12.4496C108.631 11.8496 107.734 11.3996 106.836 11.3996C105.938 11.3996 105.04 11.6996 104.442 12.4496C103.843 13.0496 103.394 13.9496 103.394 14.9996C103.394 16.0496 103.694 16.9496 104.442 17.5496Z" fill="#23274F" stroke="#23274F" stroke-width="0.2" stroke-miterlimit="10"/>
<path d="M113.121 19.5V10.5H114.468L118.807 17.55V15.75V10.5H120.004V19.5H118.807L114.168 12.15V13.95V19.5H113.121Z" fill="#23274F" stroke="#23274F" stroke-width="0.2" stroke-miterlimit="10"/>
<path d="M101.898 32.6994C98.3069 32.6994 95.464 35.3994 95.464 39.1494C95.464 42.7494 98.3069 45.5994 101.898 45.5994C105.489 45.5994 108.332 42.8994 108.332 39.1494C108.332 35.2494 105.489 32.6994 101.898 32.6994ZM101.898 42.8994C99.9529 42.8994 98.3069 41.2494 98.3069 38.9994C98.3069 36.7494 99.9529 35.0994 101.898 35.0994C103.843 35.0994 105.489 36.5994 105.489 38.9994C105.489 41.2494 103.843 42.8994 101.898 42.8994ZM87.9825 32.6994C84.3914 32.6994 81.5484 35.3994 81.5484 39.1494C81.5484 42.7494 84.3914 45.5994 87.9825 45.5994C91.5736 45.5994 94.4166 42.8994 94.4166 39.1494C94.4166 35.2494 91.5736 32.6994 87.9825 32.6994ZM87.9825 42.8994C86.0373 42.8994 84.3914 41.2494 84.3914 38.9994C84.3914 36.7494 86.0373 35.0994 87.9825 35.0994C89.9277 35.0994 91.5736 36.5994 91.5736 38.9994C91.5736 41.2494 89.9277 42.8994 87.9825 42.8994ZM71.3736 34.6494V37.3494H77.8077C77.658 38.8494 77.0595 40.0494 76.3114 40.7994C75.4136 41.6994 73.9173 42.7494 71.3736 42.7494C67.3336 42.7494 64.341 39.5994 64.341 35.5494C64.341 31.4994 67.4832 28.3494 71.3736 28.3494C73.4684 28.3494 75.1143 29.2494 76.3114 30.2994L78.2566 28.3494C76.6106 26.8494 74.5158 25.6494 71.5232 25.6494C66.1366 25.6494 61.498 30.1494 61.498 35.5494C61.498 40.9494 66.1366 45.4494 71.5232 45.4494C74.5158 45.4494 76.6106 44.5494 78.4062 42.5994C80.2017 40.7994 80.8003 38.2494 80.8003 36.2994C80.8003 35.6994 80.8003 35.0994 80.6506 34.6494H71.3736V34.6494ZM139.305 36.7494C138.707 35.2494 137.211 32.6994 133.919 32.6994C130.627 32.6994 127.934 35.2494 127.934 39.1494C127.934 42.7494 130.627 45.5994 134.218 45.5994C137.061 45.5994 138.857 43.7994 139.455 42.7494L137.36 41.2494C136.612 42.2994 135.714 43.0494 134.218 43.0494C132.722 43.0494 131.824 42.4494 131.076 41.0994L139.605 37.4994L139.305 36.7494ZM130.627 38.8494C130.627 36.4494 132.572 35.0994 133.919 35.0994C134.966 35.0994 136.014 35.6994 136.313 36.4494L130.627 38.8494ZM123.594 44.9994H126.437V26.2494H123.594V44.9994ZM119.105 34.0494C118.357 33.2994 117.16 32.5494 115.664 32.5494C112.522 32.5494 109.529 35.3994 109.529 38.9994C109.529 42.5994 112.372 45.2994 115.664 45.2994C117.16 45.2994 118.357 44.5494 118.956 43.7994H119.105V44.6994C119.105 47.0994 117.759 48.4494 115.664 48.4494C114.018 48.4494 112.821 47.2494 112.522 46.1994L110.128 47.2494C110.876 48.8994 112.671 50.9994 115.814 50.9994C119.105 50.9994 121.799 49.0494 121.799 44.3994V32.9994H119.105C119.105 32.9994 119.105 34.0494 119.105 34.0494ZM115.814 42.8994C113.868 42.8994 112.222 41.2494 112.222 38.9994C112.222 36.7494 113.868 35.0994 115.814 35.0994C117.759 35.0994 119.255 36.7494 119.255 38.9994C119.255 41.2494 117.759 42.8994 115.814 42.8994ZM152.323 26.2494H145.59V44.9994H148.433V37.9494H152.323C155.465 37.9494 158.458 35.6994 158.458 32.0994C158.458 28.4994 155.465 26.2494 152.323 26.2494ZM152.473 35.2494H148.433V28.7994H152.473C154.568 28.7994 155.765 30.5994 155.765 31.9494C155.615 33.5994 154.418 35.2494 152.473 35.2494ZM169.68 32.5494C167.585 32.5494 165.491 33.4494 164.742 35.3994L167.286 36.4494C167.885 35.3994 168.782 35.0994 169.83 35.0994C171.326 35.0994 172.673 35.9994 172.822 37.4994V37.6494C172.374 37.3494 171.177 36.8994 169.98 36.8994C167.286 36.8994 164.593 38.3994 164.593 41.0994C164.593 43.6494 166.837 45.2994 169.231 45.2994C171.177 45.2994 172.074 44.3994 172.822 43.4994H172.972V44.9994H175.665V37.7994C175.366 34.4994 172.822 32.5494 169.68 32.5494ZM169.381 42.8994C168.483 42.8994 167.137 42.4494 167.137 41.2494C167.137 39.7494 168.782 39.2994 170.129 39.2994C171.326 39.2994 171.925 39.5994 172.673 39.8994C172.374 41.6994 170.877 42.8994 169.381 42.8994ZM185.092 32.9994L181.95 41.0994H181.8L178.508 32.9994H175.516L180.454 44.3994L177.611 50.6994H180.454L188.085 32.9994H185.092ZM159.954 44.9994H162.797V26.2494H159.954V44.9994Z" fill="#23274F"/>
<path d="M15.5614 11.25C15.1125 11.7 14.9629 12.45 14.9629 13.35V46.5C14.9629 47.4 15.2621 48.15 15.711 48.6L15.8607 48.75L34.4147 30.15V30V29.85L15.5614 11.25Z" fill="url(#paint0_linear_4145_9482)"/>
<path d="M40.4004 36.4502L34.2656 30.3002V30.0002V29.8502L40.4004 23.7002L40.5501 23.8502L47.8819 28.0502C49.9767 29.2502 49.9767 31.2002 47.8819 32.4002L40.4004 36.4502Z" fill="url(#paint1_linear_4145_9482)"/>
<path d="M40.5507 36.3L34.2662 30L15.5625 48.75C16.3106 49.5 17.3581 49.5 18.7047 48.9L40.5507 36.3Z" fill="url(#paint2_linear_4145_9482)"/>
<path d="M40.5507 23.6999L18.7047 11.2499C17.3581 10.4999 16.3106 10.6499 15.5625 11.3999L34.2662 29.9999L40.5507 23.6999Z" fill="url(#paint3_linear_4145_9482)"/>
<path opacity="0.2" d="M40.401 36.1504L18.7047 48.4504C17.5077 49.2004 16.4603 49.0504 15.7121 48.4504L15.5625 48.6004L15.7121 48.7504C16.4603 49.3504 17.5077 49.5004 18.7047 48.7504L40.401 36.1504Z" fill="#F7F7FC"/>
<path opacity="0.12" d="M15.5614 48.4506C15.1125 48.0006 14.9629 47.2506 14.9629 46.3506V46.5006C14.9629 47.4006 15.2622 48.1506 15.711 48.6006V48.4506H15.5614Z" fill="#F7F7FC"/>
<path opacity="0.12" d="M47.8819 31.95L40.4004 36.15L40.55 36.3L47.8819 32.1C48.9293 31.5 49.3782 30.75 49.3782 30C49.3782 30.75 48.7796 31.35 47.8819 31.95Z" fill="#F7F7FC"/>
<path opacity="0.25" d="M18.7036 11.4L47.8814 28.05C48.7792 28.65 49.3777 29.2499 49.3777 29.9999C49.3777 29.2499 48.9288 28.5 47.8814 27.9L18.7036 11.4C16.6088 10.05 14.9629 10.9499 14.9629 13.3499V13.4999C14.9629 11.2499 16.6088 10.2 18.7036 11.4Z" fill="#23274F"/>
<defs>
<linearGradient id="paint0_linear_4145_9482" x1="32.6116" y1="13.0427" x2="7.43803" y2="38.154" gradientUnits="userSpaceOnUse">
<stop stop-color="#00A0FF"/>
<stop offset="0.00657445" stop-color="#00A1FF"/>
<stop offset="0.2601" stop-color="#00BEFF"/>
<stop offset="0.5122" stop-color="#00D2FF"/>
<stop offset="0.7604" stop-color="#00DFFF"/>
<stop offset="1" stop-color="#00E3FF"/>
</linearGradient>
<linearGradient id="paint1_linear_4145_9482" x1="50.6266" y1="30.0602" x2="14.4208" y2="30.0602" gradientUnits="userSpaceOnUse">
<stop stop-color="#FFE000"/>
<stop offset="0.4087" stop-color="#FFBD00"/>
<stop offset="0.7754" stop-color="#FFA500"/>
<stop offset="1" stop-color="#FF9C00"/>
</linearGradient>
<linearGradient id="paint2_linear_4145_9482" x1="37.1322" y1="33.4121" x2="2.99488" y2="67.4651" gradientUnits="userSpaceOnUse">
<stop stop-color="#FF3A44"/>
<stop offset="1" stop-color="#C31162"/>
</linearGradient>
<linearGradient id="paint3_linear_4145_9482" x1="10.8667" y1="0.302626" x2="26.1105" y2="15.5089" gradientUnits="userSpaceOnUse">
<stop stop-color="#32A071"/>
<stop offset="0.0685" stop-color="#2DA771"/>
<stop offset="0.4762" stop-color="#15CF74"/>
<stop offset="0.8009" stop-color="#06E775"/>
<stop offset="1" stop-color="#00F076"/>
</linearGradient>
</defs>
</svg>
