<svg width="25" height="24" viewBox="0 0 25 24" fill="none" xmlns="http://www.w3.org/2000/svg">
<path fill-rule="evenodd" clip-rule="evenodd" d="M7.24023 0.072C8.51986 0.0130909 8.92786 0 12.1875 0C15.4471 0 15.8551 0.0141818 17.1337 0.072C18.4122 0.129818 19.285 0.333818 20.0486 0.629455C20.8482 0.931636 21.5737 1.404 22.1737 2.01491C22.7846 2.61382 23.2559 3.33818 23.557 4.13891C23.8537 4.90255 24.0566 5.77527 24.1155 7.05164C24.1744 8.33346 24.1875 8.74146 24.1875 12C24.1875 15.2596 24.1733 15.6676 24.1155 16.9473C24.0577 18.2236 23.8537 19.0964 23.557 19.86C23.2559 20.6608 22.7838 21.3864 22.1737 21.9862C21.5737 22.5971 20.8482 23.0684 20.0486 23.3695C19.285 23.6662 18.4122 23.8691 17.1359 23.928C15.8551 23.9869 15.4471 24 12.1875 24C8.92786 24 8.51986 23.9858 7.24023 23.928C5.96386 23.8702 5.09114 23.6662 4.3275 23.3695C3.52669 23.0683 2.80112 22.5963 2.20132 21.9862C1.59082 21.3869 1.11839 20.6617 0.816955 19.8611C0.521318 19.0975 0.318409 18.2247 0.2595 16.9484C0.200591 15.6665 0.1875 15.2585 0.1875 12C0.1875 8.74036 0.201682 8.33236 0.2595 7.05382C0.317318 5.77527 0.521318 4.90255 0.816955 4.13891C1.11883 3.33827 1.59163 2.61307 2.20241 2.01382C2.80136 1.40346 3.5262 0.931029 4.32641 0.629455C5.09005 0.333818 5.96277 0.130909 7.23914 0.072H7.24023ZM17.0366 2.232C15.7711 2.17418 15.3915 2.16218 12.1875 2.16218C8.9835 2.16218 8.60386 2.17418 7.33841 2.232C6.16786 2.28545 5.53295 2.48073 5.10968 2.64545C4.55005 2.86364 4.14968 3.12218 3.72968 3.54218C3.33155 3.92951 3.02515 4.40104 2.83295 4.92218C2.66823 5.34545 2.47295 5.98036 2.4195 7.15091C2.36168 8.41636 2.34968 8.796 2.34968 12C2.34968 15.204 2.36168 15.5836 2.4195 16.8491C2.47295 18.0196 2.66823 18.6545 2.83295 19.0778C3.02495 19.5982 3.3315 20.0705 3.72968 20.4578C4.11695 20.856 4.58932 21.1625 5.10968 21.3545C5.53295 21.5193 6.16786 21.7145 7.33841 21.768C8.60386 21.8258 8.98241 21.8378 12.1875 21.8378C15.3926 21.8378 15.7711 21.8258 17.0366 21.768C18.2071 21.7145 18.842 21.5193 19.2653 21.3545C19.825 21.1364 20.2253 20.8778 20.6453 20.4578C21.0435 20.0705 21.35 19.5982 21.542 19.0778C21.7068 18.6545 21.902 18.0196 21.9555 16.8491C22.0133 15.5836 22.0253 15.204 22.0253 12C22.0253 8.796 22.0133 8.41636 21.9555 7.15091C21.902 5.98036 21.7068 5.34545 21.542 4.92218C21.3239 4.36255 21.0653 3.96218 20.6453 3.54218C20.258 3.14408 19.7864 2.83768 19.2653 2.64545C18.842 2.48073 18.2071 2.28545 17.0366 2.232ZM10.6548 15.6993C11.5108 16.0556 12.4639 16.1037 13.3514 15.8353C14.2389 15.567 15.0057 14.9988 15.5209 14.2279C16.036 13.457 16.2676 12.5311 16.1759 11.6085C16.0843 10.6858 15.6751 9.82361 15.0184 9.16909C14.5998 8.7507 14.0935 8.43034 13.5362 8.23107C12.9789 8.0318 12.3843 7.95858 11.7953 8.01667C11.2063 8.07477 10.6375 8.26274 10.1298 8.56705C9.62218 8.87136 9.18831 9.28445 8.85947 9.77657C8.53062 10.2687 8.31498 10.8276 8.22806 11.413C8.14115 11.9985 8.18512 12.596 8.35682 13.1624C8.52851 13.7288 8.82366 14.2501 9.22101 14.6888C9.61837 15.1275 10.108 15.4726 10.6548 15.6993ZM7.82605 7.63855C8.3988 7.06579 9.07876 6.61146 9.8271 6.30149C10.5754 5.99151 11.3775 5.83197 12.1875 5.83197C12.9975 5.83197 13.7996 5.99151 14.5479 6.30149C15.2962 6.61146 15.9762 7.06579 16.549 7.63855C17.1217 8.2113 17.576 8.89126 17.886 9.6396C18.196 10.3879 18.3555 11.19 18.3555 12C18.3555 12.81 18.196 13.6121 17.886 14.3604C17.576 15.1087 17.1217 15.7887 16.549 16.3615C15.3922 17.5182 13.8234 18.168 12.1875 18.168C10.5516 18.168 8.98278 17.5182 7.82605 16.3615C6.66932 15.2047 6.01947 13.6359 6.01947 12C6.01947 10.3641 6.66932 8.79528 7.82605 7.63855ZM19.7235 6.75055C19.8654 6.61666 19.9791 6.45565 20.0576 6.27706C20.1362 6.09847 20.1782 5.90593 20.181 5.71083C20.1839 5.51574 20.1476 5.32205 20.0742 5.14125C20.0009 4.96044 19.892 4.79619 19.754 4.65822C19.616 4.52026 19.4518 4.41137 19.271 4.33802C19.0902 4.26467 18.8965 4.22834 18.7014 4.23118C18.5063 4.23403 18.3138 4.27599 18.1352 4.35458C17.9566 4.43317 17.7956 4.54679 17.6617 4.68873C17.4013 4.96476 17.2587 5.33141 17.2643 5.71083C17.2698 6.09026 17.423 6.4526 17.6913 6.72092C17.9596 6.98924 18.322 7.14243 18.7014 7.14796C19.0808 7.15349 19.4475 7.01093 19.7235 6.75055Z" fill="white"/>
</svg>
