<svg width="78" height="40" viewBox="0 0 78 40" fill="none" xmlns="http://www.w3.org/2000/svg">
<path d="M74.6305 0.51123H30.2253C29.9522 0.51123 29.6792 0.51123 29.4062 0.535675C24.0199 0.853452 16.1516 7.94234 12.9 13.3935C12.5277 14.029 11.8823 14.469 11.1377 14.5912C6.09899 15.3735 2.05312 18.0135 0.638309 21.7779C0.315632 22.6579 -0.00704408 23.9779 0.141884 25.6646C0.141884 25.7135 0.141884 25.7868 0.141884 25.8357V32.0446C0.141884 33.389 1.25884 34.489 2.62401 34.489H6.57058C7.34004 37.3001 9.94629 39.3779 13.0489 39.3779C16.1516 39.3779 18.7578 37.3001 19.5273 34.489H58.8938C59.564 37.4223 62.2447 39.6223 65.4218 39.6223C68.599 39.6223 71.2796 37.4223 71.9498 34.489H74.6057C75.9709 34.489 77.0878 33.389 77.0878 32.0446V2.95568C77.1127 1.61123 75.9957 0.51123 74.6305 0.51123ZM29.4558 14.9335C29.4558 15.6179 28.9097 16.1557 28.2147 16.1557H17.1445C16.2261 16.1557 15.6304 15.2023 16.0275 14.3957C16.8714 12.7335 18.5096 10.3623 21.4882 8.82234C24.1689 7.45345 26.7255 7.35568 28.2892 7.4779C28.9346 7.52679 29.431 8.06456 29.431 8.70012V14.9335H29.4558Z" fill="#23274F"/>
</svg>
