<svg width="12" height="51" viewBox="0 0 12 51" fill="none" xmlns="http://www.w3.org/2000/svg">
<path d="M7 1C7 0.447715 6.55228 -2.41411e-08 6 0C5.44772 2.41411e-08 5 0.447715 5 1L7 1ZM6 51L11.7735 41L0.226499 41L6 51ZM5 3.5C5 4.05228 5.44772 4.5 6 4.5C6.55228 4.5 7 4.05228 7 3.5L5 3.5ZM7 8.5C7 7.94772 6.55229 7.5 6 7.5C5.44772 7.5 5 7.94772 5 8.5L7 8.5ZM5 13.5C5 14.0523 5.44772 14.5 6 14.5C6.55229 14.5 7 14.0523 7 13.5L5 13.5ZM7 18.5C7 17.9477 6.55229 17.5 6 17.5C5.44772 17.5 5 17.9477 5 18.5L7 18.5ZM5 23.5C5 24.0523 5.44772 24.5 6 24.5C6.55229 24.5 7 24.0523 7 23.5L5 23.5ZM7 28.5C7 27.9477 6.55229 27.5 6 27.5C5.44772 27.5 5 27.9477 5 28.5L7 28.5ZM5 33.5C5 34.0523 5.44772 34.5 6 34.5C6.55229 34.5 7 34.0523 7 33.5L5 33.5ZM7 38.5C7 37.9477 6.55229 37.5 6 37.5C5.44772 37.5 5 37.9477 5 38.5L7 38.5ZM5 43.5C5 44.0523 5.44772 44.5 6 44.5C6.55229 44.5 7 44.0523 7 43.5L5 43.5ZM7 48.5C7 47.9477 6.55229 47.5 6 47.5C5.44772 47.5 5 47.9477 5 48.5L7 48.5ZM5 1L5 3.5L7 3.5L7 1L5 1ZM5 8.5L5 13.5L7 13.5L7 8.5L5 8.5ZM5 18.5L5 23.5L7 23.5L7 18.5L5 18.5ZM5 28.5L5 33.5L7 33.5L7 28.5L5 28.5ZM5 38.5L5 43.5L7 43.5L7 38.5L5 38.5Z" fill="#23274F"/>
</svg>
