<svg width="155" height="28" viewBox="0 0 155 28" fill="none" xmlns="http://www.w3.org/2000/svg">
<path d="M154.153 21.6686C154.153 24.6654 149.817 27.9832 143.846 27.9832C136.461 27.9832 131.496 23.1752 131.496 15.1152C131.496 6.41311 137.16 0.0244141 144.687 0.0244141C151.026 0.0244141 154.452 4.53602 154.452 9.64039C154.452 12.8759 153.108 14.4649 150.374 14.6213L139.871 15.247C140.735 19.6845 143.602 21.3887 146.619 21.3887C147.689 21.3963 148.749 21.1662 149.728 20.7135C150.707 20.2608 151.583 19.5958 152.299 18.7624C152.824 19.038 153.272 19.4527 153.597 19.9653C153.922 20.478 154.114 21.0708 154.153 21.6851V21.6686ZM143.618 6.24846C140.884 6.24846 139.753 8.66069 139.619 11.6657L146.14 11.2458C146.761 11.2458 146.965 10.7024 146.965 9.94501C146.965 8.84181 146.407 6.24846 143.618 6.24846Z" fill="white"/>
<path d="M27.0487 1.06219C27.0487 1.06219 17.7941 26.3206 17.5663 26.9134C17.2206 27.7943 16.0815 27.7943 13.379 27.7943C10.6765 27.7943 9.49806 27.7037 9.20738 26.9134C8.91671 26.123 0 1.81138 0 1.81138C3.2053 0.164807 7.85613 -1.10305 8.82244 1.75375L12.2163 13.5432C12.6872 14.9865 13.078 16.4572 13.3868 17.9478C13.8661 15.906 14.0232 15.4779 14.5574 13.5514L18.3048 1.68789C19.0904 -0.938398 25.0218 0.214204 27.0801 1.06219" fill="white"/>
<path d="M49.1479 18.8697C49.1041 21.2378 49.51 23.5914 50.342 25.7936C49.1736 27.1034 47.565 27.8857 45.8562 27.9753C45.0118 27.9678 44.1883 27.6989 43.4894 27.2023C42.7905 26.7057 42.2473 26.0036 41.9281 25.1843C40.002 26.924 37.5642 27.918 35.0226 28C30.741 28 27.0879 25.0032 27.0879 20.047C27.0879 14.778 31.1259 12.4152 36.7431 11.8142L41.0875 11.4108V11.1308C41.1661 8.08467 40.0898 6.29814 36.7431 6.29814C35.6385 6.2611 34.5384 6.46109 33.5103 6.88582C32.4822 7.31055 31.5478 7.95106 30.7646 8.768C30.2417 8.49697 29.7951 8.08804 29.4686 7.5814C29.1422 7.07475 28.9471 6.48781 28.9027 5.87827C28.9027 3.07909 32.8307 0 38.5657 0C45.5734 0 49.5643 4.11644 49.3286 11.7401L49.1636 18.1699L49.1479 18.8697ZM40.9461 21.389C40.9461 20.8785 40.8833 20.3681 40.8833 19.8412V18.1946L40.954 15.5601L37.8586 15.873C35.9339 16.0706 34.7162 17.0832 34.7162 18.845C34.7162 20.6069 35.8003 22.0147 38.0315 22.0147C39.0206 21.9827 39.9967 21.7681 40.9147 21.3808" fill="white"/>
<path d="M53.7273 9.16301C53.7712 6.79494 53.3653 4.44136 52.5332 2.23919C53.7016 0.929386 55.3102 0.147023 57.0191 0.0574817C59.1324 0.0574817 60.5072 1.45707 61.2614 3.50705C63.6998 1.31076 66.798 0.0837493 70.0131 0.0410156C75.0096 0.0410156 77.9399 3.44118 77.9399 10.0028V26.9624C73.2263 28.609 69.6753 27.9751 69.6753 26.7154V10.9166C69.6753 8.56202 68.6147 7.06364 65.9986 7.06364C64.5899 7.09693 63.2119 7.50184 61.992 8.24094V26.9542C57.2783 28.6008 53.7273 27.9668 53.7273 26.7072V9.16301Z" fill="white"/>
<path d="M127.716 3.98456C127.716 6.30622 125.1 7.854 125.1 7.854C125.1 7.854 123.419 5.22772 120.606 5.22772C119.035 5.22772 117.927 6.051 117.927 7.38473C117.927 8.32327 118.47 8.85841 119.813 9.5582L123.623 11.5588C126.938 13.2959 128.596 15.9716 128.596 19.2894C128.596 24.542 124.527 27.9998 118.257 27.9998C113.544 27.9998 109.184 26.0075 109.184 22.7884C109.184 20.4338 111.493 18.2521 111.493 18.2521C111.493 18.2521 113.85 22.1874 117.448 22.1956C119.255 22.1956 120.308 21.1995 120.308 19.9398C120.308 19.0013 119.719 18.2109 118.532 17.5852L114.738 15.5682C111.061 13.617 109.961 11.1224 109.961 8.455C109.961 3.38356 113.685 0.0410156 119.978 0.0410156C124.354 0.0410156 127.716 1.5641 127.716 3.98456Z" fill="white"/>
<path d="M97.3367 8.72703V1.00461C99.8585 0.181322 103.519 -0.88895 105.586 1.47388V18.8699C105.542 21.238 105.948 23.5916 106.78 25.7937C105.611 27.1035 104.003 27.8859 102.294 27.9755C100.181 27.9755 98.8136 27.2098 98.0516 25.1763C96.5275 26.5429 93.55 28.0001 89.5041 28.0001C84.6019 28.0001 81.7344 24.5917 81.7344 18.0302V0.938743C84.6961 0.0413616 89.2055 -0.707829 89.9755 1.48211V9.20453V17.1245C89.9755 19.4791 90.981 20.9693 93.5029 20.9693C95.1448 20.9693 97.2974 19.405 97.2974 18.697V8.72703H97.3367Z" fill="white"/>
</svg>
