<svg width="76" height="36" viewBox="0 0 76 36" fill="none" xmlns="http://www.w3.org/2000/svg">
<path d="M73.5106 0H29.2361C29.1607 0 29.1104 0 29.035 0C27.9036 0.101337 26.2694 0.329346 24.4592 1.01337C19.9085 2.7361 18.5509 5.59887 14.8048 8.76566C13.6231 9.75369 12.6426 10.2604 10.8324 11.4004C8.74564 12.7178 7.28743 13.5285 6.20633 14.0859C4.14472 15.1499 3.84302 15.0992 3.16419 15.6819C1.70598 16.974 1.22829 18.8487 1.07744 20.2674C0.147196 24.0676 -0.154504 27.0317 0.0717708 28.3237C0.147196 28.6784 0.272907 29.4384 0.876307 29.9958C1.32886 30.4265 1.93225 30.6798 2.58594 30.6798H9.34904C10.1284 33.5932 12.7683 35.7467 15.911 35.7467C19.0537 35.7467 21.6936 33.5932 22.473 30.6798H58.325C59.0038 33.7199 61.7191 36 64.9373 36C68.1554 36 70.8707 33.7199 71.5495 30.6798H73.4854C74.8682 30.6798 75.9996 29.5398 75.9996 28.1464V2.53343C76.0247 1.14004 74.8933 0 73.5106 0ZM32.0268 10.8937C32.0268 11.6031 31.4737 12.1604 30.7697 12.1604H19.5566C18.6263 12.1604 18.0229 11.1724 18.4252 10.3364C19.28 8.61365 20.9394 6.15623 23.9564 4.56017C26.6716 3.14145 29.2612 3.04011 30.8452 3.16678C31.4989 3.21745 32.0017 3.77481 32.0017 4.4335V10.8937H32.0268Z" fill="#31B7B7"/>
</svg>
