<svg width="72" height="31" viewBox="0 0 72 31" fill="none" xmlns="http://www.w3.org/2000/svg">
<path d="M69.3172 0.311035H36.9776C36.7288 0.311035 36.48 0.311035 36.2313 0.335758C36.2313 0.335758 33.3953 0.459377 30.5096 1.745C27.1513 3.20369 24.4148 6.19525 23.1959 7.65394C22.773 8.17313 22.1511 8.49454 21.4545 8.56871C16.1558 8.98901 11.9765 10.0521 9.11571 10.9669C3.99112 12.5987 2.77216 13.8348 2.15024 14.6754C0.0108512 17.5681 0.632768 21.4497 1.27956 23.7737C1.57808 24.8368 2.57315 25.5538 3.66772 25.5538H9.58836C10.3595 28.397 12.9716 30.4985 16.0812 30.4985C19.1908 30.4985 21.8028 28.397 22.574 25.5538H52.2269C52.9484 28.4712 55.5853 30.6221 58.7446 30.6221C61.904 30.6221 64.5409 28.4712 65.2623 25.5538H69.3172C70.6854 25.5538 71.8049 24.4412 71.8049 23.0815V2.80812C71.8049 1.4236 70.7103 0.311035 69.3172 0.311035ZM42.2017 7.97535C42.2017 8.66761 41.6544 9.21152 40.9578 9.21152H29.0668C27.9971 9.21152 27.4249 7.97534 28.1215 7.15947C29.1414 5.97273 30.833 4.56349 33.5197 3.59927C36.48 2.53616 39.316 2.46199 41.0076 2.56088C41.6792 2.5856 42.1768 3.12952 42.1768 3.79706V7.97535H42.2017Z" fill="#23274F"/>
</svg>
