<svg width="31" height="24" viewBox="0 0 31 24" fill="none" xmlns="http://www.w3.org/2000/svg">
<path d="M30.1867 2.84684C29.101 3.32792 27.9347 3.65297 26.7086 3.79989C27.9737 3.0429 28.9202 1.85148 29.3714 0.447947C28.1829 1.15395 26.882 1.6509 25.5254 1.91719C24.6132 0.943152 23.4049 0.297546 22.0881 0.0806033C20.7713 -0.13634 19.4198 0.0875171 18.2432 0.71742C17.0667 1.34732 16.1311 2.34803 15.5816 3.56417C15.0321 4.78031 14.8995 6.14385 15.2043 7.44309C12.7959 7.32216 10.4399 6.69618 8.28906 5.60576C6.13824 4.51535 4.24074 2.98487 2.7197 1.11366C2.19961 2.0108 1.90056 3.05097 1.90056 4.15875C1.89998 5.15601 2.14557 6.13799 2.61552 7.01757C3.08548 7.89715 3.76528 8.64713 4.5946 9.20098C3.63281 9.17037 2.69223 8.91049 1.85116 8.44295V8.52096C1.85106 9.91965 2.33488 11.2753 3.22052 12.3579C4.10616 13.4405 5.33907 14.1833 6.71005 14.4603C5.81782 14.7018 4.88239 14.7374 3.9744 14.5644C4.36121 15.7678 5.11468 16.8203 6.12933 17.5742C7.14398 18.3282 8.36901 18.7461 9.63293 18.7692C7.48736 20.4535 4.8376 21.3672 2.1099 21.3632C1.62671 21.3633 1.14394 21.3351 0.664062 21.2786C3.43283 23.0589 6.65588 24.0037 9.94758 24C21.0904 24 27.1819 14.7711 27.1819 6.76698C27.1819 6.50694 27.1754 6.24429 27.1637 5.98425C28.3486 5.12738 29.3713 4.0663 30.1841 2.85074L30.1867 2.84684Z" fill="white"/>
</svg>
