<svg width="45" height="12" viewBox="0 0 45 12" fill="none" xmlns="http://www.w3.org/2000/svg">
<path fill-rule="evenodd" clip-rule="evenodd" d="M11.1513 12L17 0H13.067L9.43005 8.19588L9.03212 6.5335L7.73653 1.01289C7.52368 0.247423 6.86663 0.0309278 6.05226 0H0.0647795L0 0.239691C1.46217 0.548969 2.76701 0.997423 3.90528 1.56186L7.21829 12H11.1513ZM40.1647 3.91781C40.1647 3.91781 40.8473 6.46575 41 7H38C38.2964 6.39041 39.4371 4.02055 39.4371 4.02055C39.4284 4.03057 39.4987 3.88244 39.5939 3.68195L39.5941 3.68167C39.694 3.47129 39.8212 3.20334 39.9132 3L40.1647 3.91781ZM22 0L19.6845 12H16L18.3063 0H22ZM32.4797 8.03736C32.4979 6.714 31.512 5.70466 29.4033 4.87476C28.1162 4.34392 27.3311 3.98504 27.3311 3.43924C27.3494 2.94579 27.9975 2.43738 29.4398 2.43738C30.6357 2.41495 31.512 2.64672 32.1693 2.8785L32.4979 3.0056L33 0.493457C32.2788 0.261682 31.1286 0 29.7137 0C26.0896 0 23.5427 1.58504 23.5245 3.84298C23.4971 5.51027 25.3502 6.43737 26.7378 6.99812C28.1527 7.56634 28.6365 7.94017 28.6365 8.4411C28.6183 9.21867 27.4863 9.57755 26.4365 9.57755C24.9759 9.57755 24.1909 9.39063 22.995 8.95699L22.5112 8.77007L22 11.3794C22.8581 11.7009 24.4465 11.985 26.0896 12C29.9419 12.0075 32.4523 10.4448 32.4797 8.03736ZM42.0791 0L45 12H41.6463C41.6463 12 41.3218 10.6255 41.2136 10.2008H36.5617C36.4265 10.5174 35.8044 12 35.8044 12H32L37.3821 0.996139C37.7517 0.216216 38.4099 0 39.2753 0H42.0791Z" fill="#2014C9"/>
</svg>
