<svg width="84" height="50" viewBox="0 0 84 50" fill="none" xmlns="http://www.w3.org/2000/svg">
<path d="M82.5826 0.733398H33.6068C33.2588 0.733398 32.9853 1.00095 32.9853 1.34147V12.5786C32.9853 12.7489 32.8362 12.8948 32.6621 12.8948H30.7727C30.5738 12.8948 30.2755 12.8948 29.9274 12.9191C28.0877 12.9921 24.0354 13.4299 19.0881 16.5432C13.047 20.3133 15.011 22.2105 10.1382 24.5698C6.40912 26.3697 4.74344 26.8804 3.42582 27.9993L3.40096 28.0236C3.30152 28.0966 2.72972 28.6317 2.18278 29.337C-0.676215 32.9611 0.591687 39.5526 1.06404 41.6201C1.13862 41.8876 1.38724 42.0822 1.66071 42.0822H7.17979C7.15493 42.3254 7.13009 42.5687 7.13009 42.8119C7.13009 46.436 10.1382 49.3791 13.8425 49.3791C17.5468 49.3791 20.5549 46.436 20.5549 42.8119C20.5549 42.5687 20.53 42.3254 20.5052 42.0822H57.1749C57.1252 42.3984 57.1003 42.7146 57.1003 43.0551C57.1003 46.6792 60.1085 49.6223 63.8127 49.6223C67.517 49.6223 70.5252 46.6792 70.5252 43.0551C70.5252 42.7146 70.5003 42.3984 70.4506 42.0822H74.1548C74.5029 42.0822 74.8509 41.8876 75.025 41.5958C75.6962 40.4283 76.7155 38.9446 78.232 37.4609C79.8231 35.9042 81.4391 34.8583 82.6821 34.2016C83.0053 34.0314 83.2042 33.6908 83.2042 33.3503V1.34147C83.2042 1.00095 82.9307 0.733398 82.5826 0.733398ZM29.7534 25.0562C29.7534 25.7373 29.2065 26.2724 28.5104 26.2724H17.4225C16.5026 26.2724 15.8811 25.3238 16.3037 24.5211C17.149 22.8672 18.7898 20.5079 21.7731 18.9755C24.4581 17.6134 27.0187 17.5162 28.5849 17.6378C29.2313 17.6864 29.7286 18.2215 29.7286 18.8539V25.0562H29.7534Z" fill="#23274F"/>
</svg>
